<svg xmlns="http://www.w3.org/2000/svg" xmlns:xlink="http://www.w3.org/1999/xlink" id="Layer_1" width="194.667" height="248" x="0" y="0" enable-background="new 0 0 194.667 248" version="1.1" viewBox="0 0 194.667 248" xml:space="preserve"><switch><g><g><path fill="#FCA915" d="M142.185,83.365c-3.065-21.797-6.319-43.564-9.521-65.344c-0.619-4.177-1.297-4.385-4.754-1.811 c-4.288,3.193-8.384,6.728-12.967,9.46c-5.717,3.419-11.604,4.991-17.576,4.964H97.3c-5.97,0.027-11.859-1.545-17.576-4.964 c-4.583-2.732-8.676-6.267-12.967-9.46c-3.457-2.574-4.129-2.366-4.752,1.811c-3.203,21.779-6.457,43.547-9.522,65.344 c-1.269,8.966-2.026,18.021-0.968,27.06c0.93,7.943,2.362,15.82,3.603,23.728c0.113,0.695,0.298,1.375,0.472,2.049 c0,0.008,0.006,0.008,0.006,0.014c0.049,0.093,0.187,0.344,0.421,0.352c0.29,0.014,0.51-0.202,0.571-0.467 c0.625-2.232,1.248-4.486,1.962-6.992c4.938,7.416,11.575,12.344,19.298,15.592c-2.83,1.637-5.137,3.352-6.433,4.372 c0,0-0.003,0.003-0.009,0.007c-0.063,0.069-0.341,0.381-0.233,0.594c0.11,0.219,0.22,0.309,0.584,0.324h51.158 c0.36-0.016,0.471-0.105,0.584-0.324c0.107-0.213-0.174-0.524-0.237-0.594c-0.005-0.004-0.009-0.007-0.009-0.007 c-1.295-1.021-3.602-2.735-6.43-4.372c7.721-3.248,14.359-8.176,19.296-15.592c0.714,2.506,1.337,4.76,1.962,6.992 c0.061,0.265,0.281,0.48,0.568,0.467c0.236-0.008,0.375-0.259,0.422-0.352c0-0.008,0.006-0.008,0.006-0.014 c0.179-0.674,0.363-1.354,0.474-2.049c1.24-7.907,2.676-15.785,3.603-23.728C144.211,101.387,143.452,92.331,142.185,83.365z M125.764,67.316c-5.67,6.484-12.891,6.904-22.46,1.295c-1.39,2.947-2.704,5.828-4.101,8.653 c-0.469,0.981-1.078,1.924-1.754,2.775c-1.471,1.854-2.331,1.699-3.166-0.532c-1.343-3.545-2.652-7.107-4.074-10.896 c-3.996,3.441-8.384,5.031-13.494,3.994c-3.48-0.705-6.383-2.433-8.609-5.198c-4.693-5.839-4.496-13.718,0.43-19.364 c4.559-5.211,12.634-6.492,18.576-2.942c6.968,4.175,8.941,11.269,5.601,20.37c2.61-0.024,5.173-0.061,8.054-0.092 c-2.517-4.805-3.049-9.482-1.064-14.26c1.469-3.524,3.991-6.133,7.393-7.892c6.416-3.335,14.577-1.554,19.034,4.163 C130.912,53.52,130.769,61.58,125.764,67.316z"/><path fill="#FCA915" d="M119.614,57.531c-0.044,3.122-2.597,5.619-5.733,5.6c-3.065-0.027-5.622-2.643-5.604-5.736 c0.02-3.164,2.726-5.805,5.849-5.688C117.271,51.822,119.67,54.361,119.614,57.531z"/><path fill="#FCA915" d="M79.824,63.699c-3.223,0.068-5.697-2.255-5.807-5.439c-0.113-3.168,2.271-5.754,5.406-5.854 c3.25-0.109,5.891,2.352,5.93,5.549C85.405,61.105,82.96,63.635,79.824,63.699z"/></g><g><g><path fill="#F4F4F4" d="M25.21,210.76h-1.307l17.156-42.385h1.543l16.742,42.385h-1.307l-5.58-13.949H30.849L25.21,210.76z M41.892,169.563h-0.119l-10.449,26.06h20.658L41.892,169.563z"/><path fill="#F4F4F4" d="M61.957,174.371v-5.996h1.188v5.996H61.957z M61.957,210.76v-30.512h1.188v30.512H61.957z"/><path fill="#F4F4F4" d="M69.673,210.76v-30.512h1.188v7.538h0.117c0.277-1.147,0.713-2.226,1.307-3.235 c0.594-1.008,1.385-1.889,2.375-2.642c0.988-0.751,2.166-1.345,3.533-1.78c1.365-0.436,2.955-0.633,4.777-0.594v1.188 c-2.098-0.119-3.908,0.168-5.432,0.861c-1.523,0.691-2.781,1.642-3.77,2.849c-0.99,1.208-1.723,2.603-2.197,4.185 c-0.475,1.584-0.711,3.206-0.711,4.868v17.274H69.673z"/><path fill="#F4F4F4" d="M84.333,189.479c0.596-1.92,1.475-3.611,2.643-5.076c1.168-1.463,2.604-2.641,4.305-3.531 s3.682-1.336,5.936-1.336c2.217,0,4.174,0.445,5.879,1.336c1.699,0.891,3.135,2.068,4.303,3.531 c1.166,1.465,2.047,3.156,2.643,5.076c0.594,1.92,0.891,3.928,0.891,6.025s-0.297,4.106-0.891,6.024 c-0.596,1.921-1.477,3.613-2.643,5.075c-1.168,1.466-2.604,2.633-4.303,3.504c-1.705,0.87-3.682,1.305-5.938,1.305 c-2.219,0-4.176-0.435-5.877-1.305c-1.701-0.871-3.137-2.038-4.305-3.504c-1.168-1.462-2.047-3.154-2.643-5.075 c-0.592-1.918-0.889-3.927-0.889-6.024S83.742,191.398,84.333,189.479z M85.431,201.084c0.535,1.781,1.338,3.354,2.406,4.72 c1.068,1.364,2.385,2.454,3.947,3.265c1.564,0.811,3.373,1.217,5.432,1.217c2.02,0,3.809-0.406,5.373-1.217 c1.563-0.811,2.879-1.9,3.947-3.265c1.07-1.366,1.871-2.938,2.404-4.72s0.801-3.641,0.801-5.58c0-1.899-0.268-3.74-0.801-5.521 s-1.334-3.354-2.404-4.719c-1.068-1.365-2.385-2.464-3.947-3.295c-1.564-0.83-3.354-1.246-5.373-1.246 c-2.059,0-3.867,0.416-5.432,1.246c-1.563,0.831-2.879,1.93-3.947,3.295s-1.871,2.938-2.406,4.719 c-0.531,1.781-0.799,3.622-0.799,5.521C84.632,197.443,84.9,199.303,85.431,201.084z"/><path fill="#F4F4F4" d="M153.73,180.248l-9.736,30.512h-1.543l-9.498-29.326h-0.119l-9.557,29.326h-1.662l-9.438-30.512h1.127 l9.083,29.325h0.119l9.438-29.325h1.842l9.379,29.325h0.119l9.26-29.325H153.73z"/><path fill="#F4F4F4" d="M157.707,168.375v42.385h-1.186v-42.385H157.707z"/></g><g><g><path fill="#F4F4F4" d="M118.316,220.676c1.707,0,2.992,0.283,3.848,0.846c0.857,0.567,1.289,1.457,1.289,2.674 c0,1.225-0.43,2.119-1.281,2.684c-0.857,0.563-2.143,0.846-3.855,0.846c-1.725,0-3.012-0.283-3.862-0.846 c-0.852-0.564-1.275-1.459-1.275-2.684c0-1.217,0.424-2.106,1.281-2.674C115.314,220.959,116.6,220.676,118.316,220.676z M118.316,225.951c0.543,0,1.008-0.023,1.385-0.068c0.379-0.041,0.686-0.129,0.92-0.261c0.232-0.126,0.402-0.306,0.51-0.534 c0.104-0.229,0.158-0.525,0.158-0.893s-0.055-0.664-0.158-0.893c-0.107-0.229-0.277-0.405-0.51-0.527 c-0.234-0.129-0.541-0.213-0.92-0.258c-0.377-0.045-0.842-0.064-1.385-0.064c-0.549,0-1.012,0.02-1.389,0.064 s-0.686,0.129-0.918,0.258c-0.235,0.122-0.407,0.299-0.512,0.527c-0.104,0.229-0.158,0.525-0.158,0.893 s0.055,0.664,0.158,0.893c0.105,0.229,0.277,0.408,0.512,0.534c0.232,0.132,0.541,0.22,0.918,0.261 C117.305,225.928,117.768,225.951,118.316,225.951z"/><path fill="#F4F4F4" d="M126.76,227.706h-2.174v-7.03h2.174V227.706z"/><path fill="#F4F4F4" d="M136.813,227.706h-7.971c-0.275,0-0.51-0.077-0.709-0.226c-0.199-0.151-0.301-0.371-0.301-0.657 c0-0.161,0.043-0.319,0.127-0.467c0.084-0.151,0.199-0.286,0.344-0.405l2.564-2.017c0.295-0.231,0.547-0.429,0.76-0.597 c0.205-0.164,0.389-0.303,0.545-0.418c0.154-0.115,0.283-0.209,0.383-0.277c0.104-0.07,0.188-0.132,0.248-0.18 c-0.1,0.006-0.213,0.013-0.342,0.02c-0.129,0.01-0.293,0.012-0.486,0.016c-0.189,0.004-0.418,0.006-0.676,0.006 s-0.564,0-0.916,0h-2.09l-0.006-1.828h7.15c0.273,0,0.512,0.076,0.711,0.225c0.199,0.154,0.299,0.371,0.299,0.657 c0,0.161-0.045,0.319-0.125,0.47c-0.086,0.152-0.199,0.281-0.348,0.394l-2.596,2.058c-0.287,0.232-0.535,0.429-0.748,0.59 c-0.209,0.16-0.389,0.299-0.537,0.415c-0.15,0.116-0.277,0.206-0.373,0.277c-0.1,0.071-0.184,0.132-0.254,0.181 c0.082-0.007,0.229-0.014,0.428-0.017s0.428-0.007,0.686-0.01c0.258-0.007,0.535-0.009,0.83-0.013s0.578-0.004,0.852-0.004 h2.551V227.706z"/><path fill="#F4F4F4" d="M142.477,220.676c1.711,0,2.992,0.283,3.854,0.846c0.855,0.567,1.285,1.457,1.285,2.674 c0,1.225-0.426,2.119-1.283,2.684c-0.854,0.563-2.139,0.846-3.855,0.846c-1.723,0-3.008-0.283-3.861-0.846 c-0.85-0.564-1.275-1.459-1.275-2.684c0-1.217,0.43-2.106,1.283-2.674C139.477,220.959,140.76,220.676,142.477,220.676z M142.477,225.951c0.549,0,1.01-0.023,1.389-0.068c0.377-0.041,0.684-0.129,0.918-0.261c0.234-0.126,0.406-0.306,0.512-0.534 c0.104-0.229,0.158-0.525,0.158-0.893s-0.055-0.664-0.158-0.893c-0.105-0.229-0.277-0.405-0.512-0.527 c-0.234-0.129-0.541-0.213-0.918-0.258c-0.379-0.045-0.84-0.064-1.389-0.064c-0.543,0-1.008,0.02-1.387,0.064 c-0.377,0.045-0.684,0.129-0.918,0.258c-0.236,0.122-0.406,0.299-0.51,0.527c-0.105,0.229-0.158,0.525-0.158,0.893 s0.053,0.664,0.158,0.893c0.104,0.229,0.273,0.408,0.51,0.534c0.234,0.132,0.541,0.22,0.918,0.261 C141.469,225.928,141.934,225.951,142.477,225.951z"/><path fill="#F4F4F4" d="M153.268,223.367c0.154,0.268,0.289,0.503,0.404,0.709c0.117,0.199,0.219,0.383,0.303,0.537 c0.09,0.162,0.164,0.307,0.232,0.436c0.068,0.132,0.133,0.261,0.197,0.383c0.055-0.122,0.115-0.248,0.184-0.377 c0.064-0.125,0.141-0.27,0.229-0.434c0.09-0.162,0.189-0.342,0.305-0.541c0.117-0.2,0.252-0.436,0.406-0.703l1.125-1.965 c0.125-0.219,0.283-0.398,0.477-0.531c0.193-0.135,0.432-0.203,0.717-0.203c0.275,0,0.523,0.078,0.742,0.232 c0.221,0.154,0.379,0.396,0.479,0.719l1.775,6.08h-2.164l-0.66-2.412c-0.113-0.39-0.207-0.734-0.283-1.031 c-0.078-0.296-0.146-0.586-0.201-0.869c-0.119,0.244-0.25,0.509-0.398,0.803c-0.148,0.293-0.342,0.662-0.58,1.11l-0.943,1.62 c-0.09,0.174-0.184,0.309-0.279,0.409c-0.094,0.1-0.191,0.177-0.287,0.231c-0.1,0.055-0.207,0.09-0.316,0.109 c-0.113,0.017-0.234,0.026-0.367,0.026c-0.135,0-0.258-0.01-0.369-0.026c-0.111-0.02-0.217-0.055-0.313-0.109 c-0.102-0.055-0.197-0.132-0.291-0.231c-0.094-0.101-0.186-0.235-0.279-0.409l-0.943-1.633 c-0.129-0.232-0.238-0.441-0.34-0.628c-0.096-0.187-0.186-0.354-0.266-0.499c-0.082-0.152-0.152-0.287-0.211-0.41 c-0.057-0.125-0.119-0.247-0.174-0.363c-0.055,0.277-0.121,0.564-0.199,0.863c-0.076,0.299-0.168,0.647-0.273,1.037 l-0.66,2.412h-2.135l1.818-6.08c0.098-0.322,0.258-0.564,0.484-0.719c0.225-0.154,0.473-0.232,0.744-0.232 c0.283,0,0.518,0.068,0.711,0.197c0.193,0.132,0.352,0.313,0.48,0.537L153.268,223.367z"/></g></g><g><path fill="#F4F4F4" d="M25.58,222.511v0.815h0.021c0.414-0.629,1.012-0.943,1.791-0.943c0.342,0,0.654,0.07,0.932,0.213 c0.279,0.145,0.477,0.385,0.588,0.73c0.188-0.3,0.432-0.533,0.734-0.697c0.305-0.164,0.639-0.246,1.004-0.246 c0.279,0,0.529,0.029,0.756,0.09c0.225,0.061,0.418,0.156,0.578,0.285c0.162,0.129,0.285,0.295,0.375,0.497 c0.09,0.204,0.135,0.449,0.135,0.734v4.063h-0.912v-3.635c0-0.172-0.014-0.332-0.043-0.482c-0.027-0.149-0.082-0.279-0.16-0.391 c-0.08-0.109-0.188-0.198-0.328-0.263c-0.139-0.064-0.318-0.097-0.541-0.097c-0.451,0-0.803,0.129-1.059,0.387 c-0.258,0.256-0.387,0.601-0.387,1.029v3.451h-0.912v-3.635c0-0.178-0.016-0.342-0.049-0.493 c-0.031-0.147-0.086-0.28-0.164-0.39c-0.08-0.111-0.186-0.197-0.318-0.258s-0.301-0.092-0.508-0.092 c-0.266,0-0.492,0.053-0.68,0.161c-0.191,0.108-0.346,0.237-0.461,0.385c-0.119,0.151-0.205,0.306-0.258,0.468 c-0.055,0.16-0.08,0.294-0.08,0.402v3.451h-0.912v-5.542H25.58z"/><path fill="#F4F4F4" d="M39.31,228.031c-0.156,0.094-0.375,0.139-0.654,0.139c-0.236,0-0.422-0.066-0.561-0.198 c-0.141-0.132-0.211-0.349-0.211-0.649c-0.25,0.301-0.541,0.518-0.873,0.649s-0.691,0.198-1.078,0.198 c-0.25,0-0.486-0.029-0.711-0.086c-0.227-0.057-0.42-0.146-0.586-0.269c-0.164-0.12-0.293-0.28-0.391-0.477 c-0.096-0.196-0.145-0.433-0.145-0.712c0-0.316,0.055-0.572,0.16-0.773c0.107-0.199,0.248-0.36,0.424-0.486 c0.176-0.125,0.375-0.221,0.602-0.283c0.225-0.064,0.453-0.119,0.689-0.16c0.25-0.053,0.488-0.09,0.715-0.113 c0.225-0.025,0.422-0.061,0.594-0.107s0.307-0.115,0.406-0.205c0.102-0.088,0.15-0.219,0.15-0.39c0-0.2-0.037-0.36-0.113-0.483 c-0.074-0.122-0.172-0.214-0.287-0.278c-0.119-0.064-0.252-0.108-0.398-0.129s-0.291-0.032-0.434-0.032 c-0.385,0-0.707,0.072-0.965,0.221c-0.256,0.145-0.396,0.422-0.418,0.831h-0.91c0.014-0.345,0.084-0.633,0.213-0.87 c0.129-0.234,0.301-0.426,0.516-0.572c0.215-0.146,0.459-0.252,0.734-0.316c0.273-0.064,0.57-0.096,0.885-0.096 c0.248,0,0.496,0.018,0.744,0.055c0.246,0.035,0.469,0.107,0.67,0.219c0.201,0.109,0.361,0.264,0.482,0.463 c0.121,0.2,0.182,0.461,0.182,0.781v2.846c0,0.213,0.014,0.371,0.039,0.471c0.023,0.1,0.107,0.149,0.25,0.149 c0.078,0,0.172-0.015,0.279-0.044V228.031z M37.83,225.19c-0.111,0.085-0.264,0.148-0.449,0.187 c-0.184,0.039-0.381,0.071-0.584,0.098c-0.203,0.023-0.408,0.051-0.615,0.083c-0.209,0.032-0.393,0.084-0.557,0.155 c-0.166,0.07-0.301,0.174-0.402,0.304c-0.104,0.132-0.156,0.312-0.156,0.54c0,0.147,0.029,0.273,0.092,0.378 c0.061,0.103,0.139,0.187,0.234,0.249c0.098,0.064,0.209,0.111,0.338,0.139c0.129,0.029,0.264,0.044,0.408,0.044 c0.299,0,0.557-0.04,0.771-0.122c0.213-0.082,0.389-0.186,0.525-0.31c0.135-0.124,0.234-0.259,0.299-0.405 s0.096-0.282,0.096-0.411V225.19z"/><path fill="#F4F4F4" d="M44.734,228.053v-0.751h-0.021c-0.15,0.308-0.387,0.53-0.707,0.665 c-0.322,0.135-0.676,0.203-1.063,0.203c-0.428,0-0.801-0.078-1.119-0.235s-0.582-0.367-0.793-0.633 c-0.211-0.265-0.369-0.571-0.477-0.923c-0.109-0.348-0.162-0.721-0.162-1.114s0.053-0.763,0.156-1.114 c0.104-0.35,0.262-0.656,0.471-0.916c0.213-0.262,0.477-0.469,0.793-0.622c0.318-0.153,0.688-0.229,1.109-0.229 c0.143,0,0.297,0.014,0.461,0.041c0.164,0.029,0.328,0.078,0.494,0.145c0.164,0.068,0.32,0.158,0.467,0.27 c0.145,0.111,0.27,0.248,0.369,0.412h0.021v-2.852h0.91v7.654H44.734z M41.46,226.086c0.066,0.244,0.17,0.465,0.309,0.658 c0.141,0.193,0.318,0.347,0.537,0.461c0.217,0.114,0.473,0.172,0.766,0.172c0.309,0,0.568-0.061,0.783-0.184 c0.213-0.121,0.389-0.279,0.525-0.477c0.137-0.196,0.232-0.418,0.295-0.67c0.061-0.25,0.09-0.502,0.09-0.76 c0-0.271-0.031-0.535-0.096-0.789c-0.064-0.253-0.166-0.477-0.307-0.67c-0.139-0.193-0.32-0.348-0.541-0.465 c-0.221-0.118-0.488-0.178-0.803-0.178c-0.309,0-0.568,0.061-0.783,0.182c-0.213,0.123-0.387,0.283-0.516,0.483 s-0.221,0.429-0.275,0.687c-0.059,0.258-0.088,0.521-0.088,0.792C41.357,225.586,41.39,225.838,41.46,226.086z"/><path fill="#F4F4F4" d="M51.507,227.699c-0.414,0.313-0.936,0.471-1.564,0.471c-0.443,0-0.828-0.071-1.152-0.215 c-0.326-0.143-0.6-0.343-0.822-0.6c-0.221-0.258-0.385-0.564-0.496-0.922s-0.174-0.747-0.189-1.169 c0-0.422,0.064-0.807,0.193-1.156c0.129-0.351,0.309-0.653,0.541-0.911s0.51-0.457,0.826-0.602 c0.318-0.143,0.666-0.213,1.045-0.213c0.494,0,0.902,0.101,1.227,0.305c0.326,0.203,0.588,0.463,0.783,0.777 c0.197,0.314,0.332,0.656,0.408,1.028s0.104,0.726,0.092,1.062H48.25c-0.008,0.242,0.021,0.473,0.086,0.692 c0.064,0.218,0.166,0.409,0.311,0.578c0.141,0.167,0.324,0.301,0.547,0.401c0.221,0.1,0.482,0.15,0.783,0.15 c0.385,0,0.699-0.09,0.947-0.268c0.248-0.18,0.408-0.45,0.486-0.814h0.9C52.189,226.917,51.921,227.384,51.507,227.699z M51.287,224.141c-0.08-0.193-0.191-0.361-0.332-0.5c-0.139-0.138-0.303-0.249-0.492-0.331c-0.191-0.082-0.4-0.124-0.629-0.124 c-0.234,0-0.447,0.042-0.637,0.124s-0.352,0.193-0.486,0.339c-0.137,0.141-0.244,0.309-0.322,0.497s-0.127,0.392-0.139,0.605 h3.182C51.417,224.537,51.371,224.334,51.287,224.141z"/><path fill="#F4F4F4" d="M61.916,228.053l-1.127-4.404h-0.02l-1.115,4.404h-0.986l-1.781-5.542h1.01l1.252,4.534h0.023 l1.113-4.534h0.998l1.156,4.534h0.023l1.242-4.534h0.943l-1.77,5.542H61.916z"/><path fill="#F4F4F4" d="M66.105,221.514v-1.115h0.912v1.115H66.105z M67.017,222.511v5.542h-0.912v-5.542H67.017z"/><path fill="#F4F4F4" d="M71.335,222.511v0.804h-1.104v3.441c0,0.105,0.008,0.193,0.027,0.258 c0.016,0.064,0.051,0.112,0.102,0.148c0.051,0.037,0.119,0.059,0.207,0.07c0.092,0.01,0.207,0.016,0.35,0.016h0.418v0.805H70.64 c-0.236,0-0.439-0.017-0.605-0.049c-0.168-0.032-0.305-0.092-0.408-0.178c-0.105-0.085-0.182-0.207-0.23-0.363 c-0.051-0.156-0.076-0.365-0.076-0.621v-3.527h-0.941v-0.804h0.941v-1.661h0.912v1.661H71.335z"/><path fill="#F4F4F4" d="M73.789,220.398v2.928h0.023c0.07-0.173,0.17-0.316,0.299-0.436c0.129-0.117,0.273-0.214,0.436-0.289 c0.16-0.074,0.328-0.129,0.504-0.164c0.176-0.037,0.344-0.055,0.508-0.055c0.367,0,0.67,0.049,0.91,0.148 c0.246,0.102,0.441,0.24,0.592,0.418c0.15,0.18,0.256,0.393,0.316,0.639s0.092,0.521,0.092,0.82v3.645h-0.912v-3.751 c0-0.345-0.1-0.615-0.299-0.815c-0.201-0.199-0.479-0.301-0.826-0.301c-0.279,0-0.521,0.043-0.725,0.129 s-0.373,0.207-0.508,0.365c-0.135,0.156-0.238,0.342-0.307,0.551c-0.066,0.211-0.104,0.441-0.104,0.693v3.129H72.88v-7.654 H73.789z"/><path fill="#F4F4F4" d="M97.896,220.398v2.863h0.021c0.148-0.309,0.385-0.531,0.707-0.67c0.322-0.141,0.676-0.209,1.063-0.209 c0.428,0,0.803,0.078,1.119,0.234c0.316,0.158,0.582,0.371,0.793,0.638c0.211,0.269,0.369,0.578,0.477,0.928 c0.107,0.351,0.162,0.722,0.162,1.114s-0.053,0.767-0.156,1.114c-0.105,0.351-0.262,0.657-0.473,0.918s-0.475,0.467-0.791,0.615 c-0.32,0.151-0.689,0.226-1.111,0.226c-0.135,0-0.287-0.014-0.455-0.042c-0.166-0.029-0.334-0.075-0.498-0.14 s-0.32-0.152-0.467-0.264c-0.146-0.11-0.27-0.248-0.369-0.412h-0.021v0.74h-0.912v-7.654H97.896z M101.169,224.477 c-0.066-0.246-0.172-0.465-0.311-0.658s-0.318-0.348-0.535-0.461c-0.219-0.115-0.473-0.172-0.766-0.172 c-0.309,0-0.57,0.061-0.783,0.182c-0.215,0.123-0.389,0.281-0.525,0.477c-0.137,0.197-0.234,0.421-0.295,0.67 c-0.063,0.252-0.09,0.506-0.09,0.762c0,0.272,0.031,0.535,0.096,0.788c0.064,0.255,0.166,0.477,0.307,0.67 c0.139,0.192,0.318,0.348,0.541,0.467c0.221,0.118,0.488,0.177,0.801,0.177c0.316,0,0.578-0.061,0.789-0.184 c0.211-0.121,0.381-0.279,0.51-0.48c0.129-0.2,0.223-0.43,0.279-0.687c0.055-0.257,0.084-0.522,0.084-0.794 C101.271,224.975,101.238,224.724,101.169,224.477z"/><path fill="#F4F4F4" d="M106.021,228.791c-0.109,0.272-0.213,0.501-0.316,0.686c-0.105,0.188-0.217,0.339-0.344,0.457 c-0.125,0.117-0.264,0.203-0.418,0.257c-0.152,0.054-0.33,0.081-0.529,0.081c-0.107,0-0.215-0.008-0.322-0.021 c-0.107-0.016-0.211-0.04-0.311-0.076v-0.835c0.078,0.035,0.17,0.064,0.273,0.091c0.104,0.025,0.189,0.038,0.262,0.038 c0.186,0,0.34-0.046,0.467-0.136c0.125-0.088,0.221-0.215,0.285-0.38l0.375-0.933l-2.199-5.509h1.029l1.621,4.534h0.018 l1.557-4.534h0.965L106.021,228.791z"/></g><path fill="#F4F4F4" d="M82.392,222.484c0-0.11,0-0.222,0-0.331c0-0.013,0.006-0.022,0.006-0.032 c0.014-0.264,0.061-0.523,0.152-0.773c0.18-0.502,0.508-0.882,0.982-1.133c0.357-0.188,0.74-0.264,1.137-0.283 c0.041-0.004,0.08-0.008,0.119-0.01c0.041,0,0.086,0,0.129,0c0.006,0.002,0.012,0.006,0.021,0.006 c0.273,0.01,0.535,0.084,0.787,0.188c0.303,0.129,0.568,0.317,0.826,0.517c0.162,0.126,0.313,0.266,0.471,0.4 c0.004-0.002,0.014-0.007,0.02-0.016c0.252-0.252,0.537-0.465,0.834-0.663c0.316-0.208,0.656-0.353,1.033-0.411 c0.072-0.01,0.143-0.014,0.211-0.021c0.045,0,0.086,0,0.131,0c0.016,0.002,0.035,0.006,0.053,0.006 c0.33,0.01,0.652,0.059,0.963,0.181c0.553,0.214,0.953,0.593,1.184,1.144c0.119,0.289,0.172,0.591,0.191,0.901 c0.029,0.431-0.055,0.839-0.236,1.23c-0.174,0.374-0.404,0.71-0.686,1.008c-0.297,0.312-0.605,0.608-0.912,0.907 c-0.449,0.438-0.904,0.871-1.355,1.306c-0.367,0.353-0.73,0.704-1.094,1.056c-0.094,0.088-0.174,0.186-0.313,0.203 c-0.02,0-0.043,0-0.064,0c-0.078-0.02-0.146-0.053-0.207-0.112c-0.287-0.28-0.58-0.56-0.865-0.837 c-0.41-0.394-0.816-0.786-1.225-1.18c-0.252-0.242-0.506-0.486-0.758-0.73c-0.16-0.154-0.328-0.307-0.482-0.467 c-0.213-0.217-0.396-0.456-0.564-0.709c-0.225-0.34-0.375-0.712-0.453-1.111C82.412,222.64,82.402,222.563,82.392,222.484z"/><g><path fill="#F4F4F4" d="M161.441,206.381v-0.527h3.768v0.527h-1.57v4.182h-0.627v-4.182H161.441z"/><path fill="#F4F4F4" d="M166.93,205.854l1.486,3.957l1.488-3.957h0.859v4.709h-0.596v-3.918h-0.012l-1.471,3.918h-0.535 l-1.469-3.918h-0.016v3.918h-0.592v-4.709H166.93z"/></g></g></g></switch></svg>