<svg xmlns="http://www.w3.org/2000/svg" xmlns:xlink="http://www.w3.org/1999/xlink" id="Layer_1" width="26.076" height="25" x="0" y="0" enable-background="new -3.038 -2.5 26.076 25" version="1.1" viewBox="-3.038 -2.5 26.076 25" xml:space="preserve"><g><path fill="#303841" d="M9.995-2C5.14-2,1.199,1.95,1.199,6.804c0,4.033,2.695,7.506,6.582,8.5l1.84,6.408 C9.667,21.889,9.82,22,9.995,22c0.176,0,0.333-0.111,0.379-0.287l1.844-6.408c3.891-0.994,6.579-4.468,6.579-8.5 C18.805,1.95,14.852-2,9.995-2z M9.995,12.805c-3.313,0-5.998-2.691-5.998-6c0-3.311,2.685-5.997,5.998-5.997s6,2.686,6,5.997 C15.995,10.113,13.309,12.805,9.995,12.805z"/><path fill="#eac736" d="M15.999,6.804c0,3.305-2.687,6-6,6c-3.313,0-5.998-2.695-5.998-6c0-3.311,2.685-6,5.998-6 C13.313,0.804,15.999,3.493,15.999,6.804z"/></g></svg>